<svg width="440" height="110" viewBox="0 0 440 110" fill="none" xmlns="http://www.w3.org/2000/svg">
<g clip-path="url(#clip0_1_200)">
<path d="M256.345 55C256.345 61.9748 251.197 64.1387 246.387 64.1387H237.437V45.8613H246.618C251.345 45.8613 256.345 48.0252 256.345 55ZM440 55C440 85.3782 415.378 110 385 110H55C24.6218 110 0 85.3782 0 55C0 24.6218 24.6218 0 55 0H385C415.378 0 440 24.6218 440 55ZM86.9538 32.7521H46.6597V45.8613H59.7689V64.1387H46.6597V77.2479H86.9538V64.1387H73.8445V45.8613H86.9538V32.7521ZM192.017 32.7521H164.832V66.8487L144.076 32.7521H105.189V45.8613H118.298V64.1387H105.189V77.2479H132.332V43.4034L152.92 77.2479H192.017V64.1387H178.908V45.8613H192.017V32.7521ZM270.42 55C270.42 41.2815 261.092 32.7521 246.366 32.7521H210.231V45.8613H223.34V64.1387H210.231V77.2479H246.366C261.092 77.2479 270.42 68.7185 270.42 55ZM324.706 32.7521H284.412V45.8613H297.521V64.1387H284.412V77.2479H324.706V64.1387H311.597V45.8613H324.706V32.7521ZM394.37 32.7521H342.92V45.8613H356.029V64.1387H342.92V77.2479H394.37V64.1387H368.256V59.6639H391.261V50.2521H368.256V45.8613H394.37V32.7521Z" fill="#FAFAF8"/>
</g>
<defs>
<clipPath id="clip0_1_200">
<rect width="440" height="110" fill="white"/>
</clipPath>
</defs>
</svg>
