<svg width="2000" height="460" viewBox="0 0 2000 460" fill="none" xmlns="http://www.w3.org/2000/svg">
<path d="M113.12 264.3H78.82L60.17 452.63H54.15L72.8 264.3H42.11L23.46 452.63H17.44L36.09 264.3H0L1.2 258.28H36.7L43.92 187.28H7.22L8.42 181.26H43.92L61.37 7.37988H67.39L49.94 181.27H80.63L98.07 7.37988H104.09L86.64 181.27H121.54L120.34 187.29H86.65L79.43 258.29H114.33L113.13 264.31L113.12 264.3ZM73.41 258.28L80.63 187.28H49.94L42.72 258.28H73.41Z" fill="#FAFAF8"/>
<path d="M306.86 171.03H222.02V77.77C222.02 73.56 222.02 70.55 219.61 70.55C217.2 70.55 217.2 73.56 217.2 77.77V159C217.2 171.03 220.21 175.25 229.84 183.67L270.15 218.57C296.02 241.43 306.85 257.68 306.85 296.19V361.17C306.85 425.55 274.36 456.84 218.4 456.84C162.44 456.84 129.95 425.55 129.95 361.17V294.98H214.79V381.62C214.79 385.83 214.79 388.84 217.2 388.84C219.61 388.84 219.61 385.83 219.61 381.62V304.6C219.61 294.37 215.4 290.76 208.18 284.74L163.66 246.83C141.4 227.58 129.97 209.53 129.97 176.43V97.61C129.97 35.64 164.87 2.54004 220.82 2.54004C276.77 2.54004 306.86 35.63 306.86 97.61V171.02V171.03Z" fill="#FAFAF8"/>
<path d="M400.72 7.37988V381.63C400.72 385.84 400.72 388.85 403.13 388.85C405.54 388.85 405.54 385.84 405.54 381.63V7.37988H494.59V364.18C494.59 425.55 460.9 456.84 403.13 456.84C345.36 456.84 311.67 425.55 311.67 364.18V7.37988H400.72Z" fill="#FAFAF8"/>
<path d="M545.73 452.62L497.59 7.37988H594.46L597.47 233.61L599.28 293.78H600.48L602.29 233.61L605.3 7.37988H702.17L654.04 452.63H545.74L545.73 452.62Z" fill="#FAFAF8"/>
<path d="M717.81 66.3398C717.81 28.4298 728.64 3.75977 759.93 3.75977C791.22 3.75977 802.05 28.4298 802.05 66.3398V393.66C802.05 431.57 791.22 456.24 759.93 456.24C728.64 456.24 717.81 431.57 717.81 393.66V66.3398ZM759.93 9.17977C734.06 9.17977 723.83 30.2398 723.83 65.7398V394.26C723.83 429.76 734.06 450.82 759.93 450.82C785.8 450.82 796.03 429.76 796.03 394.26V65.7398C796.03 30.2398 785.8 9.17977 759.93 9.17977Z" fill="#FAFAF8"/>
<path d="M842.36 228.19V452.62H836.34V7.37988H901.32V12.7999H842.35V222.79H895.3V228.21H842.35L842.36 228.19Z" fill="#FAFAF8"/>
<path d="M1044.52 180.06H995.18V69.3501C995.18 54.3101 992.17 45.2801 983.75 45.2801C975.33 45.2801 972.32 54.3101 972.32 69.3501V145.76C972.32 169.83 975.93 177.65 989.17 194.5L1014.44 225.79C1036.1 252.87 1044.52 268.51 1044.52 311.83V379.82C1044.52 431.56 1022.26 457.44 981.34 457.44C940.42 457.44 920.57 431.57 920.57 379.82V274.53H969.91V390.05C969.91 405.69 972.92 414.12 981.34 414.12C989.76 414.12 992.77 405.7 992.77 390.05V311.23C992.77 287.16 990.36 281.15 977.73 264.3L950.65 233.61C931.4 210.75 919.96 191.49 919.96 151.18V79.5801C919.96 29.0401 943.43 2.56006 983.74 2.56006C1024.05 2.56006 1044.51 29.0301 1044.51 79.5801V180.06H1044.52Z" fill="#FAFAF8"/>
<path d="M1184.72 380.42C1184.72 431.56 1164.86 457.44 1123.95 457.44C1083.04 457.44 1059.57 431.57 1059.57 380.42V79.5801C1059.57 28.4401 1083.04 2.56006 1123.95 2.56006C1164.86 2.56006 1184.72 28.4301 1184.72 79.5801V182.47H1135.38V69.3501C1135.38 54.3101 1132.37 45.2801 1123.95 45.2801C1114.92 45.2801 1112.52 54.3101 1112.52 69.3501V390.65C1112.52 405.69 1114.93 414.72 1123.95 414.72C1132.37 414.72 1135.38 405.69 1135.38 390.65V269.71H1184.72V380.42Z" fill="#FAFAF8"/>
<path d="M1330.32 380.42C1330.32 431.56 1306.85 457.44 1265.94 457.44C1225.03 457.44 1201.56 431.57 1201.56 380.42V79.5801C1201.56 28.4401 1225.03 2.56006 1265.94 2.56006C1306.85 2.56006 1330.32 28.4301 1330.32 79.5801V380.42ZM1265.94 414.72C1274.36 414.72 1277.37 405.69 1277.37 390.65V69.3501C1277.37 54.3101 1274.36 45.2801 1265.94 45.2801C1256.91 45.2801 1254.51 54.3101 1254.51 69.3501V390.65C1254.51 405.69 1256.92 414.72 1265.94 414.72Z" fill="#FAFAF8"/>
<path d="M1475.93 380.42C1475.93 431.56 1452.46 457.44 1411.55 457.44C1370.64 457.44 1347.17 431.57 1347.17 380.42V79.5801C1347.17 28.4401 1370.64 2.56006 1411.55 2.56006C1452.46 2.56006 1475.93 28.4301 1475.93 79.5801V380.42ZM1411.55 414.72C1419.97 414.72 1422.98 405.69 1422.98 390.65V69.3501C1422.98 54.3101 1419.97 45.2801 1411.55 45.2801C1402.52 45.2801 1400.12 54.3101 1400.12 69.3501V390.65C1400.12 405.69 1402.53 414.72 1411.55 414.72Z" fill="#FAFAF8"/>
<path d="M1568.59 51.8999V452.62H1515.64V51.8999H1480.74V7.37988H1602.88V51.8999H1568.58H1568.59Z" fill="#FAFAF8"/>
<path d="M1616.73 7.37988H1719.02V51.8999H1669.68V205.33H1713.6V249.85H1669.68V408.09H1719.02V452.61H1616.73V7.37988Z" fill="#FAFAF8"/>
<path d="M1807.46 275.13C1807.46 258.88 1804.45 250.46 1795.43 250.46H1786.4V452.63H1733.45V7.37988H1800.24C1838.15 7.37988 1859.81 32.0499 1859.81 79.5799V175.85C1859.81 201.12 1852.59 219.77 1832.13 231.81C1852.59 243.84 1860.41 257.68 1860.41 282.35V405.09C1860.41 420.73 1861.61 436.98 1866.43 452.62H1812.88C1808.67 438.78 1807.46 420.13 1807.46 405.09V275.13ZM1806.86 75.3699C1806.86 59.1199 1803.85 50.6999 1795.43 50.6999H1786.4V207.74H1795.43C1803.85 207.74 1806.86 199.32 1806.86 182.47V75.3699Z" fill="#FAFAF8"/>
<path d="M2000 180.06H1950.66V69.3501C1950.66 54.3101 1947.65 45.2801 1939.23 45.2801C1930.81 45.2801 1927.8 54.3101 1927.8 69.3501V145.76C1927.8 169.83 1931.41 177.65 1944.65 194.5L1969.92 225.79C1991.58 252.87 2000 268.51 2000 311.83V379.82C2000 431.56 1977.74 457.44 1936.82 457.44C1895.9 457.44 1876.05 431.57 1876.05 379.82V274.53H1925.39V390.05C1925.39 405.69 1928.4 414.12 1936.82 414.12C1945.24 414.12 1948.25 405.7 1948.25 390.05V311.23C1948.25 287.16 1945.84 281.15 1933.21 264.3L1906.13 233.61C1886.88 210.75 1875.44 191.49 1875.44 151.18V79.5801C1875.44 29.0401 1898.91 2.56006 1939.22 2.56006C1979.53 2.56006 1999.99 29.0301 1999.99 79.5801V180.06H2000Z" fill="#FAFAF8"/>
</svg>
