<?xml version="1.0" encoding="utf-8"?>
<!-- Generator: Adobe Illustrator 27.2.0, SVG Export Plug-In . SVG Version: 6.00 Build 0)  -->
<svg version="1.1" id="Layer_1" xmlns="http://www.w3.org/2000/svg" xmlns:xlink="http://www.w3.org/1999/xlink" x="0px" y="0px"
	 viewBox="0 0 309 102" style="enable-background:new 0 0 309 102;" xml:space="preserve">
<style type="text/css">
	.st0{fill:#F6EC2A;}
</style>
<g>
	<path class="st0" d="M303.4,52.8c-5.5,6.4-18.5,13.9-27.9,13.9c-3.5,0-4.6-1.3-4.6-2.5c0-5.1,14.2-11.5,14.2-20.9
		c0-5-3-8.5-6.7-11.5c3.4-4.9,5-10.2,5-14.1c0-7.8-6.2-13.8-14.4-13.8c-7.8,0.1-14.1,6.4-14.2,14.2c0,7.3,5.3,12.6,10.9,16.2
		c-11.8,14.4-33.1,32.1-48.3,32.1c-5.4,0-11.9-1.4-11.9-8.2c0.1-1.8,0.5-3.7,1.3-5.3c5.6,2.7,11.6,4.1,17.8,4.2
		c12.9,0,19.7-9.5,19.7-16.4c0-8-6.2-13.7-15-13.7c-9.2,0-19.1,5.9-25.6,13.8c-2.1-1.3-4.2-2.8-6.2-4.3c8.7-7,17.6-13.1,26.3-16.7
		l-3.4-8.4C204.1,18,188,32.3,173.7,44.9c-11.2,9.8-20.7,21.4-25.2,21.4c0-4,12.2-17.1,12.2-24.7c0-3.3-2.2-6.6-7.2-6.6
		c-10,0-36.9,31.5-47.2,31.5c-0.7,0-1.3-0.3-1.3-0.8c0-7.1,4.8-15.8,13.9-25.2l0.4-0.4l0.7-0.7l-6.4-6.4c-1.7,1.7-3.5,3.5-5.2,5.6
		c-5.3,6-10.2,11.3-17.5,11.3c-2.4-0.2-4.6-1.2-6.3-2.9c7.2-6,11.8-12.6,11.8-19c0-9.9-8.4-16.4-22.8-18l2.4-4.7L68,1l-4.4,8.5
		c-16.2,0.8-38.5,9.3-49.1,15.1l4.4,7.9c8.8-4.8,26.2-11.5,39.8-13.5l-17,33c-9.9-7.9-17-13.9-26.1-13.9C7.3,38.1,1,44.1,1,51.9
		c0,5,2.5,9.5,7.1,12.5c4.1,2.7,9.7,4.2,16.1,4.2c3.1,0,6.2-0.2,9.3-0.6l-7.3,14.2l8,4.2L44.7,66c20.1,15.4,50.7,35,99.8,35l0,0
		c16.1-0.2,32-2.9,47.3-8l-3.4-8.4c-14.2,4.7-29,7.2-43.9,7.4l0,0c-42.4,0-69.6-15-89-29.2c7.6-2.6,14.9-6.1,21.7-10.4
		c3.8,4,8.9,6.5,13.8,6.5c2.1,0,4.2-0.4,6.2-1.1c-0.8,2.6-1.2,5.4-1.2,8.1c0,5.7,4,9.6,10.1,9.6c16.3,0,38.9-29,43.8-29.6
		c-3.3,4-10.4,15.6-10.4,21.2c0,6.2,4.2,8.4,7.7,8.4c9.7,0,17.5-10.5,32.6-23.8c3.4-3,7-6.2,10.6-9.2c2.8,2.1,5.6,4.1,8.5,6
		c-1.5,3-2.3,6.4-2.3,9.8c0,10.7,8,17.3,21,17.3c17.2,0,42-18.6,55.8-36.3c1.8,1.4,2.8,2.6,2.8,3.8c0,5.5-14.2,10.8-14.2,21.5
		c0,5.3,3.7,11,14,11c10.8,0,24.5-7.1,32.2-14.4L303.4,52.8z M229.3,36.1c1.4,0,6,0.3,6,4.6c0,2.5-3.2,7.4-10.7,7.4
		c-4.4-0.1-8.7-1-12.7-2.8C216.6,40.1,223.2,36,229.3,36.1L229.3,36.1z M87.4,27.9c0,8.3-17,20.5-37,27.1l18.8-36.4
		C78.5,19.1,87.4,21.7,87.4,27.9z M10,51.9c0-2.3,1.8-4.7,5.6-4.7c5.9,0,11.7,4.9,19.8,11.5c-3.7,0.6-7.5,0.9-11.3,0.9
		C15.8,59.6,10,56.4,10,51.9z M270.9,27.1c-4.1-2.3-7.2-5.6-7.2-8.9c0.1-2.8,2.3-5,5.1-5.1c2.9,0,5.3,2.3,5.3,5.2
		C274.3,20.1,273.5,23.2,270.9,27.1z"/>
	<path class="st0" d="M134.6,29.5c3.3-2.7,3.8-7.6,1-10.9s-7.6-3.8-10.9-1c-0.2,0.2-0.4,0.4-0.6,0.5c-5.4,5-3.2,13.4-3.2,13.4
		S129.2,34.5,134.6,29.5z"/>
</g>
</svg>
